<mxfile host="65bd71144e">
    <diagram id="Zx-dt7DG9LgxkGhazVlm" name="Page-1">
        <mxGraphModel dx="1300" dy="929" grid="1" gridSize="10" guides="1" tooltips="1" connect="1" arrows="1" fold="1" page="1" pageScale="1" pageWidth="1600" pageHeight="900" math="0" shadow="0">
            <root>
                <mxCell id="0"/>
                <mxCell id="1" parent="0"/>
                <mxCell id="8" value="Keybits File Format" style="swimlane;whiteSpace=wrap;html=1;" parent="1" vertex="1">
                    <mxGeometry x="30" y="50" width="380" height="210" as="geometry">
                        <mxRectangle x="30" y="50" width="140" height="30" as="alternateBounds"/>
                    </mxGeometry>
                </mxCell>
                <mxCell id="2" value="PCB (Keyboard)" style="rounded=1;whiteSpace=wrap;html=1;" parent="8" vertex="1">
                    <mxGeometry x="120" y="40" width="120" height="60" as="geometry"/>
                </mxCell>
                <mxCell id="20" value="Physical Layout" style="rounded=1;whiteSpace=wrap;html=1;perimeterSpacing=30;" parent="8" vertex="1">
                    <mxGeometry x="97.5" y="130" width="165" height="60" as="geometry"/>
                </mxCell>
                <mxCell id="11" value="Export: Vial.json" style="swimlane;whiteSpace=wrap;html=1;" parent="1" vertex="1">
                    <mxGeometry x="580" y="50" width="200" height="200" as="geometry"/>
                </mxCell>
                <mxCell id="24" value="KLE Positioning&lt;br&gt;Layout Options" style="rounded=1;whiteSpace=wrap;html=1;" parent="11" vertex="1">
                    <mxGeometry x="40" y="40" width="120" height="60" as="geometry"/>
                </mxCell>
                <mxCell id="12" value="Export: Via.json" style="swimlane;whiteSpace=wrap;html=1;" parent="1" vertex="1">
                    <mxGeometry x="580" y="280" width="200" height="200" as="geometry"/>
                </mxCell>
                <mxCell id="26" value="KLE Positioning" style="rounded=1;whiteSpace=wrap;html=1;" parent="12" vertex="1">
                    <mxGeometry x="40" y="40" width="120" height="60" as="geometry"/>
                </mxCell>
                <mxCell id="13" value="Export: QMK info.json" style="swimlane;whiteSpace=wrap;html=1;" parent="1" vertex="1">
                    <mxGeometry x="580" y="510" width="200" height="200" as="geometry"/>
                </mxCell>
                <mxCell id="27" value="Abs Positioning&lt;br&gt;Rotations removed" style="rounded=1;whiteSpace=wrap;html=1;" parent="13" vertex="1">
                    <mxGeometry x="40" y="50" width="120" height="60" as="geometry"/>
                </mxCell>
                <mxCell id="14" value="Export: Kicad Schematic" style="swimlane;whiteSpace=wrap;html=1;" parent="1" vertex="1">
                    <mxGeometry x="840" y="50" width="200" height="200" as="geometry"/>
                </mxCell>
                <mxCell id="31" value="Footprints" style="rounded=1;whiteSpace=wrap;html=1;" parent="14" vertex="1">
                    <mxGeometry x="40" y="40" width="120" height="60" as="geometry"/>
                </mxCell>
                <mxCell id="15" value="Export: QMK Keymap.c" style="swimlane;whiteSpace=wrap;html=1;" parent="1" vertex="1">
                    <mxGeometry x="840" y="510" width="200" height="200" as="geometry"/>
                </mxCell>
                <mxCell id="32" value="Keycodes in matrix position" style="rounded=1;whiteSpace=wrap;html=1;" parent="15" vertex="1">
                    <mxGeometry x="40" y="40" width="120" height="60" as="geometry"/>
                </mxCell>
                <mxCell id="28" value="Export: KLE" style="swimlane;whiteSpace=wrap;html=1;" parent="1" vertex="1">
                    <mxGeometry x="840" y="280" width="200" height="200" as="geometry"/>
                </mxCell>
            </root>
        </mxGraphModel>
    </diagram>
</mxfile>